<svg width="20" height="19" viewBox="0 0 20 19" fill="none" xmlns="http://www.w3.org/2000/svg">
<g filter="url(#filter0_d_5029_16)">
<path d="M17.1429 8.28544C17.1429 12.2303 13.9449 15.4283 10 15.4283M17.1429 8.28544C17.1429 4.34054 13.9449 1.14258 10 1.14258M17.1429 8.28544H2.85718M10 15.4283C6.05514 15.4283 2.85718 12.2303 2.85718 8.28544M10 15.4283C11.7867 13.4723 12.802 10.934 12.8572 8.28544C12.802 5.63689 11.7867 3.09854 10 1.14258M10 15.4283C8.21341 13.4723 7.19807 10.934 7.14289 8.28544C7.19807 5.63689 8.21341 3.09854 10 1.14258M2.85718 8.28544C2.85718 4.34054 6.05514 1.14258 10 1.14258" stroke="white" stroke-linecap="round" stroke-linejoin="round" shape-rendering="crispEdges"/>
</g>
<defs>
<filter id="filter0_d_5029_16" x="-1.64282" y="0.642578" width="23.2856" height="23.2852" filterUnits="userSpaceOnUse" color-interpolation-filters="sRGB">
<feFlood flood-opacity="0" result="BackgroundImageFix"/>
<feColorMatrix in="SourceAlpha" type="matrix" values="0 0 0 0 0 0 0 0 0 0 0 0 0 0 0 0 0 0 127 0" result="hardAlpha"/>
<feOffset dy="4"/>
<feGaussianBlur stdDeviation="2"/>
<feComposite in2="hardAlpha" operator="out"/>
<feColorMatrix type="matrix" values="0 0 0 0 0 0 0 0 0 0 0 0 0 0 0 0 0 0 0.25 0"/>
<feBlend mode="normal" in2="BackgroundImageFix" result="effect1_dropShadow_5029_16"/>
<feBlend mode="normal" in="SourceGraphic" in2="effect1_dropShadow_5029_16" result="shape"/>
</filter>
</defs>
</svg>
