<svg width="21" height="20" viewBox="0 0 21 20" fill="none" xmlns="http://www.w3.org/2000/svg">
<path d="M10.6155 16.6214C10.4835 16.6545 10.349 16.6839 10.2155 16.7087C9.86647 16.7741 9.63572 17.1122 9.70028 17.4641C9.73216 17.6372 9.82977 17.7814 9.96229 17.8756C10.0989 17.9724 10.2727 18.0161 10.4498 17.9829C10.6088 17.9532 10.7691 17.9183 10.9263 17.8787C11.271 17.7923 11.4809 17.4406 11.3949 17.0936C11.3092 16.7463 10.9603 16.5349 10.6155 16.6214Z" fill="black"/>
<path d="M15.3722 7.93711C15.4173 8.07388 15.5033 8.18555 15.6119 8.2627C15.773 8.37699 15.9838 8.41545 16.185 8.34845C16.5223 8.23564 16.705 7.86931 16.5934 7.52975C16.5426 7.37496 16.4862 7.21968 16.4261 7.06849C16.2942 6.73624 15.92 6.57448 15.59 6.70738C15.2604 6.84021 15.0997 7.21718 15.2318 7.54953C15.2822 7.67661 15.3295 7.80705 15.3722 7.93711Z" fill="black"/>
<path d="M12.7056 15.6957C12.5921 15.7712 12.475 15.8442 12.3571 15.9126C12.0493 16.0915 11.9439 16.4878 12.1213 16.7977C12.1695 16.882 12.2337 16.9509 12.3076 17.0035C12.506 17.1442 12.7755 17.1652 12.9998 17.035C13.1401 16.9535 13.2796 16.8669 13.4147 16.7769C13.711 16.5797 13.7925 16.1777 13.5967 15.8791C13.4009 15.5805 13.002 15.4984 12.7056 15.6957Z" fill="black"/>
<path d="M16.9939 9.74566C16.9799 9.38805 16.6809 9.10971 16.3258 9.12367C15.9711 9.13777 15.6946 9.43908 15.7085 9.79655C15.7138 9.93322 15.7152 10.0719 15.7121 10.2085C15.7071 10.4327 15.816 10.6326 15.9852 10.7528C16.086 10.8243 16.2083 10.8676 16.341 10.8706C16.696 10.8786 16.9902 10.5949 16.9981 10.2371C17.0016 10.074 17.0003 9.9087 16.9939 9.74566Z" fill="black"/>
<path d="M15.2677 13.992C14.983 13.7769 14.5803 13.8353 14.367 14.1215C14.2854 14.2311 14.1994 14.3394 14.1114 14.4436C13.8813 14.716 13.9138 15.125 14.1841 15.3569C14.1995 15.3701 14.2151 15.3822 14.2313 15.3935C14.5 15.5844 14.8735 15.5405 15.0908 15.2837C15.196 15.1593 15.2985 15.03 15.396 14.8991C15.6093 14.6128 15.5516 14.2069 15.2677 13.992Z" fill="black"/>
<path d="M16.2122 11.6494C15.8733 11.5423 15.5123 11.7324 15.4061 12.0738C15.3655 12.2042 15.3204 12.3353 15.2718 12.4637C15.165 12.7462 15.2673 13.0571 15.5019 13.2237C15.5449 13.2542 15.5923 13.28 15.6438 13.2996C15.9756 13.4272 16.3473 13.2595 16.4738 12.925C16.5315 12.7724 16.5851 12.6165 16.6336 12.4614C16.7397 12.1199 16.5511 11.7564 16.2122 11.6494Z" fill="black"/>
<path d="M7.80988 16.7143C7.23482 16.6103 6.68318 16.4332 6.16009 16.1862C6.1539 16.1829 6.14836 16.1792 6.14186 16.1762C6.0186 16.1178 5.89554 16.0552 5.77626 15.9898C5.77585 15.9893 5.77509 15.989 5.77444 15.9887C5.55559 15.8673 5.34201 15.733 5.13451 15.5858C2.10884 13.4389 1.38134 9.21258 3.51285 6.16481C3.97634 5.50232 4.53723 4.94963 5.16254 4.51158C5.17024 4.50617 5.17795 4.5008 5.18558 4.49536C7.38908 2.96599 10.3811 2.86292 12.7208 4.43449L12.2183 5.16588C12.0786 5.36946 12.1646 5.51781 12.4091 5.49564L14.592 5.29878C14.8369 5.27661 14.9833 5.06323 14.9175 4.82501L14.3313 2.69759C14.2657 2.45909 14.0976 2.43055 13.9578 2.63409L13.4541 3.36721C11.737 2.20615 9.67759 1.76342 7.63348 2.12047C7.4276 2.15637 7.22461 2.2003 7.0244 2.25143C7.02285 2.25171 7.02162 2.25188 7.02038 2.25216C7.01264 2.25406 7.0048 2.25659 6.99726 2.25871C5.23459 2.71467 3.69668 3.75025 2.59929 5.2278C2.59004 5.23885 2.58051 5.24966 2.57177 5.26168C2.53528 5.31119 2.49907 5.36184 2.46361 5.41249C2.40562 5.4955 2.34846 5.58059 2.29377 5.66568C2.28693 5.67593 2.2817 5.68636 2.27571 5.69672C1.37013 7.11027 0.933332 8.74449 1.00824 10.4082C1.00841 10.4137 1.0081 10.4192 1.00824 10.4248C1.0155 10.5873 1.02829 10.7521 1.04566 10.9143C1.04659 10.9248 1.04889 10.9347 1.05065 10.9451C1.0686 11.1083 1.09113 11.2717 1.11937 11.4352C1.40635 13.1029 2.18736 14.6037 3.35767 15.7714C3.36038 15.7741 3.3632 15.7771 3.36596 15.7799C3.36692 15.781 3.36799 15.7816 3.36891 15.7826C3.68334 16.095 4.02535 16.3839 4.3936 16.6452C5.35731 17.3292 6.43042 17.7814 7.58288 17.9897C7.93256 18.053 8.2666 17.8185 8.32933 17.4664C8.39203 17.1141 8.15946 16.7774 7.80988 16.7143Z" fill="black"/>
<path d="M8.6046 4.82349C8.31697 4.82349 8.08398 5.05838 8.08398 5.3477V10.5704L12.8258 13.0395C12.9022 13.0794 12.9839 13.0981 13.0643 13.0981C13.2526 13.0981 13.4345 12.9948 13.527 12.8145C13.6589 12.5573 13.5591 12.2412 13.3037 12.1083L9.12463 9.93198V5.3477C9.1246 5.05838 8.89189 4.82349 8.6046 4.82349Z" fill="black"/>
</svg>
