<svg width="28" height="27" viewBox="0 0 28 27" fill="none" xmlns="http://www.w3.org/2000/svg">
<g filter="url(#filter0_d)">
<path opacity="0.3" d="M11.875 9.625C9.942 9.625 8.375 8.058 8.375 6.125C8.375 4.192 9.942 2.625 11.875 2.625C13.808 2.625 15.375 4.192 15.375 6.125C15.375 8.058 13.808 9.625 11.875 9.625ZM22.375 7H18.875C18.3918 7 18 6.60825 18 6.125C18 5.64175 18.3918 5.25 18.875 5.25H22.375C22.8582 5.25 23.25 5.64175 23.25 6.125C23.25 6.60825 22.8582 7 22.375 7Z" fill="black"/>
<path d="M4.00057 17.6743C4.33973 13.4982 7.72917 11.375 11.8604 11.375C16.0498 11.375 19.4918 13.3815 19.7482 17.675C19.7584 17.846 19.7482 18.375 19.0909 18.375C15.8485 18.375 11.0304 18.375 4.63656 18.375C4.41712 18.375 3.9821 17.9018 4.00057 17.6743Z" fill="black"/>
</g>
<defs>
<filter id="filter0_d" x="0" y="0" width="29" height="29" filterUnits="userSpaceOnUse" color-interpolation-filters="sRGB">
<feFlood flood-opacity="0" result="BackgroundImageFix"/>
<feColorMatrix in="SourceAlpha" type="matrix" values="0 0 0 0 0 0 0 0 0 0 0 0 0 0 0 0 0 0 127 0"/>
<feOffset dy="4"/>
<feGaussianBlur stdDeviation="2"/>
<feColorMatrix type="matrix" values="0 0 0 0 0 0 0 0 0 0 0 0 0 0 0 0 0 0 0.25 0"/>
<feBlend mode="normal" in2="BackgroundImageFix" result="effect1_dropShadow"/>
<feBlend mode="normal" in="SourceGraphic" in2="effect1_dropShadow" result="shape"/>
</filter>
</defs>
</svg>
