<svg width="16" height="17" viewBox="0 0 16 17" fill="none" xmlns="http://www.w3.org/2000/svg">
<path d="M7.99979 15.5826C11.9447 15.5826 15.1426 12.3846 15.1426 8.43973C15.1426 4.49484 11.9447 1.29688 7.99979 1.29688C4.0549 1.29688 0.856934 4.49484 0.856934 8.43973C0.856934 12.3846 4.0549 15.5826 7.99979 15.5826Z" stroke="white" stroke-linecap="round" stroke-linejoin="round"/>
<path d="M7.99979 12.7254C10.3667 12.7254 12.2855 10.8067 12.2855 8.43973C12.2855 6.0728 10.3667 4.15402 7.99979 4.15402C5.63286 4.15402 3.71408 6.0728 3.71408 8.43973C3.71408 10.8067 5.63286 12.7254 7.99979 12.7254Z" stroke="white" stroke-linecap="round" stroke-linejoin="round"/>
<path d="M7.99979 9.8683C8.78877 9.8683 9.42836 9.22871 9.42836 8.43973C9.42836 7.65075 8.78877 7.01116 7.99979 7.01116C7.21081 7.01116 6.57122 7.65075 6.57122 8.43973C6.57122 9.22871 7.21081 9.8683 7.99979 9.8683Z" stroke="white" stroke-linecap="round" stroke-linejoin="round"/>
</svg>
