<svg width="18" height="15" viewBox="0 0 18 15" fill="none" xmlns="http://www.w3.org/2000/svg">
<path d="M11.8574 13.8689V12.4403C11.8574 11.6825 11.5563 10.9558 11.0205 10.42C10.4847 9.88417 9.75797 9.58315 9.00021 9.58315H4.00021C3.24245 9.58315 2.51572 9.88417 1.9799 10.42C1.44409 10.9558 1.14307 11.6825 1.14307 12.4403V13.8689M12.5716 6.726L14.0002 8.15458L16.8574 5.29743M9.35735 3.86886C9.35735 5.44682 8.07817 6.726 6.50021 6.726C4.92225 6.726 3.64307 5.44682 3.64307 3.86886C3.64307 2.29091 4.92225 1.01172 6.50021 1.01172C8.07817 1.01172 9.35735 2.29091 9.35735 3.86886Z" stroke="white" stroke-linecap="round" stroke-linejoin="round"/>
</svg>
