<?xml version="1.0" encoding="UTF-8" standalone="no"?><!DOCTYPE svg PUBLIC "-//W3C//DTD SVG 1.1//EN" "http://www.w3.org/Graphics/SVG/1.1/DTD/svg11.dtd"><svg width="100%" height="100%" viewBox="0 0 20 20" version="1.1" xmlns="http://www.w3.org/2000/svg" xmlns:xlink="http://www.w3.org/1999/xlink" xml:space="preserve" xmlns:serif="http://www.serif.com/" style="fill-rule:evenodd;clip-rule:evenodd;stroke-linejoin:round;stroke-miterlimit:2;"><g id="_x31_68-hubspot"><g><path d="M10.18,8.44c-0.735,0.695 -1.195,1.679 -1.195,2.772c0,0.858 0.284,1.649 0.762,2.285l-1.45,1.459c-0.129,-0.047 -0.267,-0.073 -0.411,-0.073c-0.316,-0 -0.612,0.123 -0.834,0.345c-0.223,0.223 -0.346,0.522 -0.346,0.838c-0,0.317 0.123,0.613 0.346,0.835c0.222,0.223 0.521,0.34 0.834,0.34c0.317,0 0.613,-0.114 0.838,-0.34c0.223,-0.222 0.346,-0.521 0.346,-0.835c0,-0.123 -0.017,-0.24 -0.056,-0.354l1.465,-1.471c0.645,0.495 1.448,0.788 2.324,0.788c2.106,0 3.808,-1.708 3.808,-3.814c0,-1.91 -1.397,-3.492 -3.228,-3.771l-0,-1.804c0.512,-0.217 0.826,-0.698 0.826,-1.257c-0,-0.765 -0.613,-1.404 -1.377,-1.404c-0.765,0 -1.368,0.639 -1.368,1.404c-0,0.559 0.313,1.04 0.826,1.257l-0,1.792c-0.445,0.062 -0.867,0.197 -1.251,0.399c-0.809,-0.612 -3.442,-2.511 -4.948,-3.656c0.035,-0.129 0.058,-0.264 0.058,-0.405c0,-0.843 -0.688,-1.529 -1.535,-1.529c-0.844,0 -1.529,0.686 -1.529,1.529c-0,0.847 0.685,1.533 1.529,1.533c0.287,-0 0.554,-0.085 0.785,-0.223l4.781,3.36Zm2.623,4.793c-1.117,0 -2.022,-0.905 -2.022,-2.021c0,-1.116 0.905,-2.022 2.022,-2.022c1.116,0 2.021,0.906 2.021,2.022c0,1.116 -0.905,2.021 -2.021,2.021Z" style="fill:#ff7a59;fill-rule:nonzero;"/></g></g></svg>