<?xml version="1.0" encoding="UTF-8" standalone="no"?><!DOCTYPE svg PUBLIC "-//W3C//DTD SVG 1.1//EN" "http://www.w3.org/Graphics/SVG/1.1/DTD/svg11.dtd"><svg width="100%" height="100%" viewBox="0 0 10 10" version="1.1" xmlns="http://www.w3.org/2000/svg" xmlns:xlink="http://www.w3.org/1999/xlink" xml:space="preserve" xmlns:serif="http://www.serif.com/" style="fill-rule:evenodd;clip-rule:evenodd;stroke-linejoin:round;stroke-miterlimit:2;"><path d="M9.897,5.092c0,-0.076 -0.039,-0.148 -0.104,-0.187l-0.001,-0l-0.004,-0.003l-3.381,-2.001c-0.015,-0.01 -0.03,-0.019 -0.045,-0.027c-0.131,-0.067 -0.286,-0.067 -0.417,0c-0.015,0.008 -0.03,0.017 -0.045,0.027l-3.381,2.001l-0.004,0.003c-0.103,0.064 -0.135,0.2 -0.07,0.303c0.018,0.03 0.045,0.056 0.075,0.074l3.381,2.001c0.015,0.01 0.03,0.019 0.046,0.027c0.13,0.067 0.285,0.067 0.416,0c0.015,-0.008 0.03,-0.017 0.045,-0.027l3.381,-2.001c0.067,-0.039 0.108,-0.112 0.108,-0.19Z" style="fill:#0a2767;fill-rule:nonzero;"/><path d="M2.913,3.756l2.219,-0l-0,2.033l-2.219,0l0,-2.033Zm6.53,-2.068l-0,-0.93c0.005,-0.233 -0.179,-0.425 -0.411,-0.431l-5.758,-0c-0.232,0.006 -0.416,0.198 -0.411,0.431l0,0.93l3.403,0.908l3.177,-0.908Z" style="fill:#0364b8;fill-rule:nonzero;"/><rect x="2.863" y="1.688" width="2.269" height="2.042" style="fill:#0078d4;fill-rule:nonzero;"/><path d="M7.401,1.688l-2.269,0l-0,2.042l2.269,2.042l2.042,0l-0,-2.042l-2.042,-2.042Z" style="fill:#28a8ea;fill-rule:nonzero;"/><rect x="5.132" y="3.73" width="2.269" height="2.042" style="fill:#0078d4;fill-rule:nonzero;"/><rect x="5.132" y="5.772" width="2.269" height="2.042" style="fill:#0364b8;fill-rule:nonzero;"/><rect x="2.913" y="5.789" width="2.219" height="1.849" style="fill:#14447d;fill-rule:nonzero;"/><rect x="7.401" y="5.772" width="2.042" height="2.042" style="fill:#0078d4;fill-rule:nonzero;"/><path d="M9.793,5.269l-0.005,0.003l-3.38,1.901c-0.015,0.009 -0.03,0.018 -0.046,0.025c-0.057,0.028 -0.119,0.043 -0.183,0.046l-0.185,-0.108c-0.015,-0.008 -0.03,-0.017 -0.045,-0.026l-3.426,-1.956l-0.002,0l-0.112,-0.062l0,3.849c0.002,0.256 0.212,0.463 0.468,0.462l6.559,-0c0.004,-0 0.007,-0.002 0.011,-0.002c0.054,-0.004 0.108,-0.015 0.159,-0.033c0.022,-0.01 0.043,-0.021 0.064,-0.033c0.015,-0.009 0.041,-0.028 0.041,-0.028c0.116,-0.086 0.185,-0.222 0.186,-0.366l-0,-3.849c-0,0.073 -0.04,0.141 -0.104,0.177Z" style="fill:url(#_Linear1);fill-rule:nonzero;"/><path d="M9.715,5.077l0,0.235l-3.535,2.434l-3.66,-2.59c0,-0.001 -0.001,-0.002 -0.002,-0.002l-0.336,-0.202l0,-0.17l0.139,-0.003l0.292,0.168l0.007,0.002l0.025,0.016c0,0 3.44,1.963 3.449,1.967l0.132,0.078c0.011,-0.005 0.022,-0.009 0.036,-0.014c0.007,-0.005 3.415,-1.922 3.415,-1.922l0.038,0.003Z" style="fill:#0a2767;fill-opacity:0.5;fill-rule:nonzero;"/><path d="M9.793,5.269l-0.005,0.003l-3.38,1.901c-0.015,0.009 -0.03,0.018 -0.046,0.026c-0.131,0.064 -0.284,0.064 -0.416,-0c-0.015,-0.008 -0.03,-0.017 -0.045,-0.026l-3.381,-1.901l-0.004,-0.003c-0.065,-0.035 -0.106,-0.103 -0.107,-0.177l0,3.849c0.002,0.256 0.211,0.463 0.468,0.462l6.552,-0c0.257,0.001 0.466,-0.206 0.468,-0.462c-0,-0 -0,-0 -0,-0l-0,-3.849c-0,0.073 -0.04,0.141 -0.104,0.177Z" style="fill:#1490df;fill-rule:nonzero;"/><path d="M6.457,7.145l-0.051,0.028c-0.014,0.01 -0.029,0.018 -0.045,0.026c-0.056,0.027 -0.116,0.043 -0.178,0.047l1.286,1.521l2.244,0.541c0.061,-0.046 0.11,-0.107 0.142,-0.178l-3.398,-1.985Z" style="fill-opacity:0.1;fill-rule:nonzero;"/><path d="M6.686,7.016l-0.28,0.157c-0.014,0.01 -0.029,0.018 -0.045,0.026c-0.056,0.027 -0.116,0.043 -0.178,0.047l0.602,1.662l2.928,0.399c0.116,-0.086 0.184,-0.222 0.184,-0.366l-0,-0.05l-3.211,-1.875Z" style="fill-opacity:0.05;fill-rule:nonzero;"/><path d="M2.884,9.403l6.544,-0c0.101,0 0.199,-0.032 0.28,-0.091l-3.714,-2.176c-0.015,-0.008 -0.031,-0.016 -0.045,-0.026l-3.426,-1.955l-0.002,-0l-0.112,-0.063l0,3.836c0,0.262 0.212,0.474 0.475,0.475Z" style="fill:#28a8ea;fill-rule:nonzero;"/><path d="M5.586,2.558l-0,4.84c-0.001,0.169 -0.104,0.322 -0.261,0.385c-0.049,0.021 -0.101,0.032 -0.154,0.032l-2.762,0l0,-5.446l0.454,0l0,-0.227l2.308,0c0.229,0.001 0.414,0.187 0.415,0.416Z" style="fill-opacity:0.1;fill-rule:nonzero;"/><path d="M5.359,2.785l-0,4.839c0,0.055 -0.011,0.11 -0.034,0.159c-0.063,0.156 -0.214,0.258 -0.381,0.258l-2.535,0l0,-5.672l2.535,0c0.066,-0.001 0.13,0.016 0.188,0.048c0.139,0.07 0.227,0.212 0.227,0.368Z" style="fill-opacity:0.2;fill-rule:nonzero;"/><path d="M5.359,2.785l-0,4.386c-0.001,0.229 -0.186,0.415 -0.415,0.417l-2.535,-0l0,-5.219l2.535,0c0.066,-0.001 0.13,0.016 0.188,0.048c0.139,0.07 0.227,0.212 0.227,0.368Z" style="fill-opacity:0.2;fill-rule:nonzero;"/><path d="M5.132,2.785l-0,4.386c-0,0.229 -0.186,0.415 -0.415,0.417l-2.308,-0l0,-5.219l2.308,0c0.229,0 0.415,0.186 0.415,0.416c-0,-0 -0,-0 -0,-0Z" style="fill-opacity:0.2;fill-rule:nonzero;"/><path d="M0.556,2.369l4.16,0c0.23,0 0.416,0.186 0.416,0.416l-0,4.16c-0,0.229 -0.186,0.416 -0.416,0.416l-4.16,-0c-0.229,-0 -0.416,-0.187 -0.416,-0.416l0,-4.16c0,-0.23 0.187,-0.416 0.416,-0.416Z" style="fill:url(#_Linear2);fill-rule:nonzero;"/><path d="M1.44,4.113c0.103,-0.218 0.268,-0.401 0.475,-0.524c0.23,-0.132 0.491,-0.197 0.755,-0.19c0.245,-0.005 0.487,0.057 0.699,0.18c0.199,0.119 0.36,0.293 0.462,0.501c0.111,0.23 0.167,0.482 0.162,0.738c0.005,0.266 -0.052,0.53 -0.167,0.771c-0.104,0.216 -0.27,0.396 -0.476,0.519c-0.22,0.126 -0.471,0.19 -0.725,0.184c-0.25,0.006 -0.497,-0.057 -0.714,-0.181c-0.201,-0.119 -0.364,-0.294 -0.468,-0.503c-0.112,-0.226 -0.168,-0.476 -0.164,-0.728c-0.005,-0.265 0.05,-0.527 0.161,-0.767Zm0.507,1.232c0.054,0.138 0.147,0.258 0.267,0.346c0.122,0.085 0.268,0.129 0.417,0.125c0.159,0.007 0.316,-0.039 0.446,-0.129c0.118,-0.088 0.209,-0.208 0.26,-0.346c0.056,-0.154 0.085,-0.317 0.082,-0.481c0.002,-0.166 -0.024,-0.331 -0.078,-0.488c-0.047,-0.142 -0.134,-0.267 -0.251,-0.36c-0.127,-0.095 -0.283,-0.143 -0.442,-0.136c-0.152,-0.004 -0.302,0.04 -0.427,0.127c-0.122,0.088 -0.216,0.208 -0.272,0.348c-0.124,0.32 -0.125,0.675 -0.002,0.995l-0,-0.001Z" style="fill:#fff;fill-rule:nonzero;"/><rect x="7.401" y="1.688" width="2.042" height="2.042" style="fill:#50d9ff;fill-rule:nonzero;"/><defs><linearGradient id="_Linear1" x1="0" y1="0" x2="1" y2="0" gradientUnits="userSpaceOnUse" gradientTransform="matrix(2.63969e-16,4.31095,-4.31095,2.63969e-16,6.15301,0.553865)"><stop offset="0" style="stop-color:#35b8f1;stop-opacity:1"/><stop offset="1" style="stop-color:#28a8ea;stop-opacity:1"/></linearGradient><linearGradient id="_Linear2" x1="0" y1="0" x2="1" y2="0" gradientUnits="userSpaceOnUse" gradientTransform="matrix(3.25732,5.64155,-5.64155,3.25732,1.00753,-2.49381)"><stop offset="0" style="stop-color:#1784d9;stop-opacity:1"/><stop offset="0.5" style="stop-color:#107ad5;stop-opacity:1"/><stop offset="1" style="stop-color:#0a63c9;stop-opacity:1"/></linearGradient></defs></svg>